<svg width="24" height="24" viewBox="0 0 24 24" fill="none" xmlns="http://www.w3.org/2000/svg">
<rect x="3.01007" y="2.9668" width="26.9531" height="1.42846" rx="0.714229" transform="rotate(45 3.01007 2.9668)" fill="white"/>
<path fill-rule="evenodd" clip-rule="evenodd" d="M12.0345 0.75C9.96342 0.75 8.28448 2.42893 8.28448 4.5V6.17398L15.692 13.5815C15.7525 13.314 15.7845 13.0358 15.7845 12.75V4.5C15.7845 2.42893 14.1056 0.75 12.0345 0.75ZM12.4363 16.4787L8.28448 12.3269V12.75C8.28448 14.8211 9.96342 16.5 12.0345 16.5C12.1702 16.5 12.3043 16.4928 12.4363 16.4787ZM13.6909 17.7333L14.846 18.8884C14.2063 19.1819 13.5129 19.3783 12.7845 19.4588V21.75H15.7845C16.1987 21.75 16.5345 22.0858 16.5345 22.5C16.5345 22.9142 16.1987 23.25 15.7845 23.25H8.28448C7.87027 23.25 7.53448 22.9142 7.53448 22.5C7.53448 22.0858 7.87027 21.75 8.28448 21.75H11.2845V19.4588C7.90952 19.0857 5.28448 16.2244 5.28448 12.75V11.25C5.28448 10.8358 5.62027 10.5 6.03448 10.5C6.4487 10.5 6.78448 10.8358 6.78448 11.25V12.75C6.78448 15.6495 9.13499 18 12.0345 18C12.6133 18 13.1702 17.9063 13.6909 17.7333ZM18.0075 15.897L16.8814 14.7709C17.1411 14.1489 17.2845 13.4662 17.2845 12.75V11.25C17.2845 10.8358 17.6203 10.5 18.0345 10.5C18.4487 10.5 18.7845 10.8358 18.7845 11.25V12.75C18.7845 13.8865 18.5036 14.9574 18.0075 15.897Z" fill="white"/>
</svg>
